<svg width="28" height="28" viewBox="0 0 28 28" fill="none" xmlns="http://www.w3.org/2000/svg">
<path fill-rule="evenodd" clip-rule="evenodd" d="M2.73326 -0.0648975C1.22466 -0.0648975 0.00167477 1.12895 0.00161736 2.60167L0.000732424 25.2683C0.000675013 26.7411 1.22369 27.9351 2.73238 27.9351L25.2691 27.9334C26.7777 27.9334 28.0007 26.7395 28.0007 25.2667V2.60004C28.0007 1.12728 26.7777 -0.0666218 25.2691 -0.0666218L2.73326 -0.0648975ZM23.0607 5.5761H25.5807C25.6921 5.5761 25.799 5.53185 25.8777 5.45308C25.9565 5.37432 26.0007 5.26749 26.0007 5.1561C26.0007 4.37636 25.691 3.62856 25.1396 3.0772C24.5883 2.52585 23.8405 2.2161 23.0607 2.2161C22.9493 2.2161 22.8425 2.26035 22.7637 2.33911C22.685 2.41788 22.6407 2.52471 22.6407 2.6361V4.9503C22.6407 5.3871 22.8297 5.5761 23.0607 5.5761ZM19.5461 8.69753C19.2178 8.37261 18.9762 7.97054 18.8433 7.5281C18.7093 7.08735 18.6847 6.62055 18.7718 6.16817C18.8589 5.7158 19.055 5.29151 19.3431 4.9321C19.6061 4.60777 19.9382 4.3464 20.3152 4.16714C20.6923 3.98789 21.1046 3.89528 21.522 3.8961C21.6281 3.8961 21.7298 3.93824 21.8048 4.01326C21.8797 4.08827 21.9219 4.19001 21.9219 4.2961V5.6961C21.9219 5.85523 21.985 6.00784 22.0975 6.12036C22.21 6.23288 22.3625 6.2961 22.5216 6.2961H23.9209C24.027 6.2961 24.1287 6.33824 24.2036 6.41326C24.2786 6.48827 24.3207 6.59001 24.3207 6.6961C24.3207 7.4387 24.0259 8.15089 23.501 8.67599C22.9762 9.2011 22.2643 9.49609 21.522 9.49609C21.2519 9.4964 20.9829 9.46007 20.7224 9.38809C20.2788 9.25988 19.8743 9.02246 19.5461 8.69753ZM22.0557 13.0491C22.0566 12.2326 22.7247 11.5708 23.5491 11.5699C24.3737 11.5699 25.0424 12.2322 25.0424 13.0491C25.0424 13.866 24.3737 14.5283 23.5491 14.5283C23.2709 14.5274 22.9987 14.4488 22.7637 14.3017L17.9874 16.4961C17.9885 16.5109 17.9905 16.5255 17.9926 16.5401C17.9956 16.5618 17.9985 16.5834 17.9985 16.6059C17.9995 17.3594 17.4278 17.9926 16.6718 18.076C15.9159 18.1594 15.2175 17.6661 15.0509 16.9311L11.5375 15.3729C11.0743 15.8175 10.3717 15.9086 9.80846 15.5975L5.88731 17.879C5.95221 18.0449 5.98611 18.2209 5.98739 18.399C5.98739 19.2158 5.31875 19.8781 4.49406 19.8781C3.66938 19.8781 3.00073 19.2158 3.00073 18.399C3.00073 17.5819 3.66938 16.9198 4.49406 16.9198C4.75729 16.9213 5.01542 16.9924 5.24146 17.1258L9.13417 14.8655C8.90248 14.3125 9.03026 13.6758 9.45792 13.2526C9.88539 12.8294 10.5283 12.7031 11.0865 12.9328C11.6447 13.1627 12.008 13.7029 12.0069 14.3017C12.0045 14.3658 11.9981 14.4297 11.9874 14.493L15.1993 15.9033C15.4237 15.4866 15.8368 15.2024 16.3094 15.1397C16.7819 15.0771 17.2561 15.2435 17.5831 15.5871L22.141 13.5214C22.0865 13.3698 22.0577 13.2102 22.0557 13.0491ZM22.4986 17.9059H24.4896C24.7645 17.9059 24.9874 18.1267 24.9874 18.399L24.9874 25.4961C24.9874 25.7684 24.7645 25.9892 24.4896 25.9892H22.4986C22.2237 25.9892 22.0007 25.7684 22.0007 25.4961L22.0008 18.399C22.0008 18.1267 22.2237 17.9059 22.4986 17.9059ZM11.4896 18.8919H9.49842C9.22352 18.8919 9.00076 19.1127 9.00076 19.385L9.00073 25.4961C9.00073 25.7684 9.22349 25.9892 9.49839 25.9892H11.4896C11.7645 25.9892 11.9874 25.7684 11.9874 25.4961L11.9874 19.385C11.9874 19.1127 11.7645 18.8919 11.4896 18.8919ZM3.00076 23.3294C3.00076 23.0571 3.2237 22.8364 3.4986 22.8364H5.48958C5.76448 22.8364 5.98742 23.0571 5.98742 23.3294L5.98739 25.4961C5.98739 25.7684 5.76445 25.9892 5.48955 25.9892H3.49857C3.22367 25.9892 3.00073 25.7684 3.00073 25.4961L3.00076 23.3294ZM15.4986 20.8642H17.4898C17.7647 20.8642 17.9874 21.085 17.9874 21.3573L17.9874 25.4961C17.9874 25.7684 17.7646 25.9892 17.4897 25.9892H15.4986C15.2237 25.9892 15.0007 25.7684 15.0007 25.4961L15.0008 21.3573C15.0008 21.085 15.2237 20.8642 15.4986 20.8642ZM2.55339 2.80134C2.24412 2.80134 1.99339 3.05206 1.99339 3.36134C1.99339 3.67062 2.24412 3.92134 2.55339 3.92134H14.0002C14.3095 3.92134 14.5602 3.67062 14.5602 3.36134C14.5602 3.05206 14.3095 2.80134 14.0002 2.80134H2.55339ZM1.99339 6.16134C1.99339 5.85206 2.24412 5.60134 2.55339 5.60134H10.6402C10.9495 5.60134 11.2002 5.85206 11.2002 6.16134C11.2002 6.47062 10.9495 6.72134 10.6402 6.72134H2.55339C2.24412 6.72134 1.99339 6.47062 1.99339 6.16134Z" fill="#6E52A2"/>
</svg>
