<svg width="32" height="32" viewBox="0 0 32 32" fill="none" xmlns="http://www.w3.org/2000/svg">
<circle cx="16" cy="16" r="14.5" stroke="#7BD7CE" stroke-width="3" stroke-linejoin="round"/>
<g clip-path="url(#clip0_5227_5648)">
<path d="M16.0003 8.66602C14.5499 8.66602 13.1321 9.09611 11.9261 9.90191C10.7202 10.7077 9.78025 11.853 9.22521 13.193C8.67017 14.533 8.52495 16.0075 8.8079 17.43C9.09086 18.8525 9.78929 20.1592 10.8149 21.1848C11.8405 22.2104 13.1471 22.9088 14.5697 23.1918C15.9922 23.4747 17.4667 23.3295 18.8067 22.7745C20.1467 22.2194 21.292 21.2795 22.0978 20.0735C22.9036 18.8676 23.3337 17.4497 23.3337 15.9993C23.3314 14.0551 22.558 12.1912 21.1832 10.8164C19.8085 9.44166 17.9445 8.66831 16.0003 8.66602ZM18.4717 18.4707C18.3466 18.5957 18.1771 18.6659 18.0003 18.6659C17.8236 18.6659 17.654 18.5957 17.529 18.4707L15.529 16.4707C15.404 16.3457 15.3337 16.1761 15.3337 15.9993V11.9993C15.3337 11.8225 15.4039 11.653 15.5289 11.5279C15.6539 11.4029 15.8235 11.3327 16.0003 11.3327C16.1771 11.3327 16.3467 11.4029 16.4717 11.5279C16.5968 11.653 16.667 11.8225 16.667 11.9993V15.7233L18.4717 17.528C18.5966 17.653 18.6669 17.8226 18.6669 17.9993C18.6669 18.1761 18.5966 18.3457 18.4717 18.4707Z" fill="#7BD7CE"/>
</g>
<defs>
<clipPath id="clip0_5227_5648">
<rect width="16" height="16" fill="white" transform="translate(8 8)"/>
</clipPath>
</defs>
</svg>
