<svg width="32" height="32" viewBox="0 0 32 32" fill="none" xmlns="http://www.w3.org/2000/svg">
<circle cx="16" cy="16" r="14.5" stroke="#C59ECF" stroke-width="3" stroke-linejoin="round"/>
<path d="M11.9639 13.3063C11.8542 12.9347 11.7488 12.5624 11.6696 12.2058C11.1489 11.8977 10.7948 11.3372 10.7948 10.6893C10.7948 9.71473 11.5873 8.92284 12.5613 8.92284C13.5352 8.92284 14.3277 9.71535 14.3277 10.6893C14.3277 10.8234 14.3097 10.9525 14.2816 11.0778C14.4506 11.45 14.5871 11.8691 14.7069 12.2949C15.0436 11.846 15.2506 11.2942 15.2506 10.6893C15.2506 9.20343 14.0471 8 12.5613 8C11.0754 8 9.87256 9.20343 9.87256 10.6893C9.87256 11.9688 10.7673 13.0345 11.9639 13.3063Z" fill="#C59ECF"/>
<path d="M10.1064 19.6733C10.7692 18.9568 11.5131 19.2374 12.5089 19.3889C13.3644 19.5205 14.2068 19.2804 14.1507 18.8184C14.0621 18.0708 13.9374 17.7366 13.6537 16.7682C13.4274 15.9981 12.9978 14.6101 12.6068 13.2833C12.083 11.508 11.9315 10.6837 12.6286 10.478C13.38 10.2591 13.8108 11.3266 14.2012 12.8069C14.6458 14.4917 14.8796 15.2356 15.0105 15.1963C15.2412 15.1302 14.9257 14.4094 15.5293 14.2317C16.2838 14.0122 16.4297 14.602 16.6411 14.5428C16.8525 14.4792 16.7808 13.8819 17.3825 13.706C17.9873 13.5314 18.291 14.2759 18.5404 14.2017C18.7873 14.1288 18.7817 13.86 19.1546 13.7534C19.5281 13.6424 20.9335 14.2716 21.7379 17.0195C22.7474 20.4745 21.6101 21.1168 21.9549 22.2865L17.4486 24C17.0838 23.1227 15.9539 23.0578 14.9544 22.4985C13.9474 21.9317 13.2634 20.8274 10.6389 20.8811C9.65184 20.901 9.69861 20.1141 10.1064 19.6733Z" fill="#C59ECF"/>
</svg>
