<svg width="31" height="31" viewBox="0 0 31 31" fill="none" xmlns="http://www.w3.org/2000/svg">
<path d="M5.65625 7.84375H1.28125C0.991169 7.84375 0.71297 7.95898 0.507852 8.1641C0.302734 8.36922 0.1875 8.64742 0.1875 8.9375V12.2188H6.75V8.9375C6.75 8.64742 6.63477 8.36922 6.42965 8.1641C6.22453 7.95898 5.94633 7.84375 5.65625 7.84375Z" fill="white"/>
<path d="M0.1875 14.4062H6.75V24.25H0.1875V14.4062Z" fill="white"/>
<path d="M0.1875 29.7188C0.1875 30.0088 0.302734 30.287 0.507852 30.4921C0.71297 30.6973 0.991169 30.8125 1.28125 30.8125H5.65625C5.94633 30.8125 6.22453 30.6973 6.42965 30.4921C6.63477 30.287 6.75 30.0088 6.75 29.7188V26.4375H0.1875V29.7188Z" fill="white"/>
<path d="M14.4062 0.1875H10.0312C9.74117 0.1875 9.46297 0.302734 9.25785 0.507852C9.05273 0.71297 8.9375 0.991169 8.9375 1.28125V4.5625H15.5V1.28125C15.5 0.991169 15.3848 0.71297 15.1796 0.507852C14.9745 0.302734 14.6963 0.1875 14.4062 0.1875Z" fill="white"/>
<path d="M8.9375 6.75H15.5V24.25H8.9375V6.75Z" fill="white"/>
<path d="M8.9375 29.7188C8.9375 30.0088 9.05273 30.287 9.25785 30.4921C9.46297 30.6973 9.74117 30.8125 10.0312 30.8125H14.4062C14.6963 30.8125 14.9745 30.6973 15.1796 30.4921C15.3848 30.287 15.5 30.0088 15.5 29.7188V26.4375H8.9375V29.7188Z" fill="white"/>
<path d="M24.5453 5.06551C24.4709 4.78589 24.2887 4.54716 24.0386 4.40161C23.7885 4.25606 23.4909 4.21555 23.211 4.28895L18.9781 5.3827C18.7001 5.46071 18.4642 5.6455 18.3219 5.89676C18.2499 6.02132 18.2032 6.15885 18.1844 6.30149C18.1656 6.44413 18.1752 6.58907 18.2125 6.72801L19.0656 9.88895L25.3985 8.19364L24.5453 5.06551Z" fill="white"/>
<path d="M19.6348 12.0337L25.9636 10.3368L29.3629 23.0156L23.0341 24.7124L19.6348 12.0337Z" fill="white"/>
<path d="M30.8126 28.3079L29.9595 25.136L23.6157 26.8313L24.4688 30.0032C24.5329 30.2418 24.6759 30.4517 24.8745 30.5986C25.0732 30.7456 25.3157 30.821 25.5626 30.8125H25.847L30.0689 29.7188C30.3478 29.6371 30.586 29.4537 30.736 29.2047C30.8117 29.0692 30.8577 28.9192 30.8709 28.7645C30.8841 28.6099 30.8642 28.4542 30.8126 28.3079Z" fill="white"/>
</svg>
